<svg xmlns="http://www.w3.org/2000/svg"  viewBox="0 0 100 100" width="50px" height="50px"><path d="M 28.125 16.001953 C 27.049637 15.99698 25.968235 16.001112 24.878906 16.017578 A 2.0002 2.0002 0 0 0 24.865234 16.017578 C 22.709645 16.065328 20.659208 16.972197 19.171875 18.533203 C 17.684317 20.093746 16.877872 22.183923 16.933594 24.339844 C 17.190276 41.077281 15.326002 58.399642 16.263672 74.974609 A 2.0002 2.0002 0 0 0 16.265625 75.001953 C 16.574242 79.383286 20.119253 82.880938 24.503906 83.128906 C 42.87904 84.165128 60.096844 84.347066 75.640625 83.285156 A 2.0002 2.0002 0 0 0 75.65625 83.285156 C 80.137912 82.947461 83.574665 79.063891 83.365234 74.574219 A 2.0002 2.0002 0 0 0 83.363281 74.554688 C 82.742931 63.484549 83.039767 63.841058 83.425781 60.162109 C 83.811782 56.483299 84.240271 49.302869 83.837891 24.083984 C 83.809051 22.038995 82.926562 20.096384 81.40625 18.728516 C 79.88587 17.360593 77.86185 16.689564 75.826172 16.875 L 75.832031 16.873047 C 58.937121 18.362784 44.255442 16.076548 28.125 16.001953 z M 28.117188 20.003906 C 38.433858 20.059093 48.361782 21.06129 58.876953 21.320312 L 58.191406 22.005859 A 1.0001 1.0001 0 1 0 59.605469 23.419922 L 61.658203 21.369141 C 62.303966 21.37612 62.95254 21.378935 63.603516 21.378906 L 62.876953 22.105469 A 1.0001 1.0001 0 1 0 64.291016 23.519531 L 66.457031 21.355469 C 69.583952 21.300601 72.777427 21.153886 76.064453 20.867188 A 1.0001 1.0001 0 1 0 77.720703 21.986328 L 78.193359 21.310547 C 78.383162 21.42282 78.563721 21.553097 78.730469 21.703125 C 79.249635 22.170235 79.604585 22.780411 79.755859 23.449219 L 78.3125 24.892578 A 1.0001 1.0001 0 1 0 79.726562 26.306641 L 79.865234 26.167969 C 79.880613 27.216926 79.891894 28.183039 79.904297 29.166016 L 78.169922 30.548828 A 1.0001 1.0001 0 1 0 79.416016 32.113281 L 79.9375 31.697266 C 79.948121 32.683541 79.955309 33.58493 79.962891 34.501953 L 78.539062 35.636719 A 1.0001 1.0001 0 1 0 79.785156 37.201172 L 79.980469 37.046875 C 80.063462 51.799031 79.736392 56.988596 79.447266 59.744141 C 79.08553 63.191692 78.746442 63.632435 79.371094 74.779297 L 79.369141 74.759766 C 79.417276 75.791677 79.095209 76.73891 78.539062 77.507812 L 77.830078 75.71875 A 1.0001 1.0001 0 0 0 76.904297 75.072266 A 1.0001 1.0001 0 0 0 75.970703 76.453125 L 76.925781 78.871094 C 76.447261 79.100494 75.920535 79.252344 75.355469 79.294922 C 74.947186 79.322794 74.524045 79.341042 74.113281 79.367188 L 73.488281 77.257812 A 1.0001 1.0001 0 0 0 72.521484 76.529297 A 1.0001 1.0001 0 0 0 71.570312 77.826172 L 72.0625 79.484375 C 62.92406 79.99822 53.201875 80.10544 42.994141 79.869141 L 43.892578 78.976562 A 1.0001 1.0001 0 0 0 43.171875 77.257812 A 1.0001 1.0001 0 0 0 42.482422 77.556641 L 40.228516 79.794922 C 38.760769 79.752638 37.283332 79.703994 35.796875 79.648438 L 36.703125 78.75 A 1.0001 1.0001 0 0 0 35.984375 77.029297 A 1.0001 1.0001 0 0 0 35.296875 77.330078 L 33.064453 79.542969 C 31.497908 79.476588 29.917879 79.400452 28.332031 79.320312 L 29.339844 78.214844 A 1.0001 1.0001 0 0 0 28.634766 76.53125 A 1.0001 1.0001 0 0 0 27.861328 76.869141 L 25.748047 79.189453 C 25.406842 79.170767 25.072516 79.156008 24.730469 79.136719 C 23.311472 79.056469 22.079329 78.360818 21.263672 77.318359 L 24.154297 75.398438 A 1.0001 1.0001 0 0 0 23.582031 73.556641 A 1.0001 1.0001 0 0 0 23.046875 73.732422 L 20.382812 75.501953 C 20.322508 75.248461 20.274762 74.989062 20.255859 74.720703 C 20.179638 73.36836 20.130095 72.004722 20.089844 70.636719 A 1.0005935 1.0005935 0 0 0 20.273438 70.578125 L 22.773438 69.484375 A 1.0001 1.0001 0 0 0 22.429688 67.5625 A 1.0001 1.0001 0 0 0 21.972656 67.652344 L 20.035156 68.498047 C 20.013137 67.226109 20.022001 65.939505 20.023438 64.65625 A 1.0001 1.0001 0 0 0 20.160156 64.621094 L 22.708984 63.855469 A 1.0001 1.0001 0 0 0 22.398438 61.894531 A 1.0001 1.0001 0 0 0 22.132812 61.939453 L 20.015625 62.578125 C 20.027005 61.378536 20.06018 60.16669 20.085938 58.958984 L 22.478516 58.822266 A 1.0002522 1.0002522 0 0 0 22.433594 56.822266 A 1.0001 1.0001 0 0 0 22.363281 56.824219 L 20.125 56.953125 C 20.152678 55.909657 20.186405 54.860839 20.220703 53.8125 L 22.302734 53.691406 A 1.0001 1.0001 0 0 0 22.257812 51.693359 A 1.0001 1.0001 0 0 0 22.1875 51.695312 L 20.287109 51.804688 C 20.610066 42.702679 21.075495 33.452044 20.933594 24.257812 A 2.0002 2.0002 0 0 0 20.931641 24.238281 C 20.903361 23.144202 21.311964 22.084426 22.066406 21.292969 C 22.820535 20.501167 23.858019 20.042311 24.951172 20.017578 C 26.011557 20.001636 27.06597 19.998283 28.117188 20.003906 z M 74.388672 24.574219 L 66.378906 24.628906 A 1.0001 1.0001 0 0 0 65.384766 25.628906 L 65.384766 32.628906 A 1.0001 1.0001 0 0 0 66.476562 33.625 L 73.488281 32.974609 A 1.0001 1.0001 0 0 0 74.382812 32.132812 L 75.382812 25.728516 A 1.0001 1.0001 0 0 0 74.388672 24.574219 z M 73.224609 26.582031 L 72.527344 31.054688 L 67.384766 31.53125 L 67.384766 26.623047 L 73.224609 26.582031 z M 24.601562 27.574219 C 24.049563 27.574219 23.601562 28.022219 23.601562 28.574219 C 23.601562 29.126219 24.049563 29.574219 24.601562 29.574219 C 25.153562 29.574219 25.601562 29.126219 25.601562 28.574219 C 25.601562 28.022219 25.153562 27.574219 24.601562 27.574219 z M 32.792969 27.574219 C 32.240969 27.574219 31.792969 28.022219 31.792969 28.574219 C 31.792969 29.126219 32.240969 29.574219 32.792969 29.574219 C 33.344969 29.574219 33.792969 29.126219 33.792969 28.574219 C 33.792969 28.022219 33.344969 27.574219 32.792969 27.574219 z M 50.421875 30.332031 C 46.087286 30.170784 41.120791 31.584084 37.230469 34.892578 C 36.284003 35.697492 35.406359 36.619813 34.621094 37.654297 A 1.0001 1.0001 0 0 0 34.384766 37.628906 L 26.384766 37.628906 A 1.0001 1.0001 0 0 0 25.384766 38.636719 L 25.601562 67.576172 L 25.607422 67.457031 C 25.48034 68.589453 25.704922 70.208574 26.585938 71.730469 C 27.466949 73.252364 29.174665 74.601651 31.636719 74.564453 L 31.59375 74.564453 L 69.546875 75.564453 A 1.0001 1.0001 0 0 0 69.783203 75.542969 C 72.559205 74.944138 74.960022 73.231246 75.865234 69.925781 A 1.0001 1.0001 0 0 0 75.900391 69.675781 L 76.394531 37.603516 A 1.0001 1.0001 0 0 0 75.394531 36.589844 L 64.65625 36.589844 C 64.065722 35.9477 63.450227 35.340164 62.789062 34.804688 C 59.152163 31.859163 54.614085 30.488191 50.421875 30.332031 z M 29.601562 31.978516 C 29.049563 31.978516 28.601562 32.426516 28.601562 32.978516 C 28.601562 33.530516 29.049563 33.978516 29.601562 33.978516 C 30.153562 33.978516 30.601562 33.530516 30.601562 32.978516 C 30.601562 32.426516 30.153562 31.978516 29.601562 31.978516 z M 50.347656 32.330078 C 54.155447 32.471918 58.294151 33.735696 61.53125 36.357422 C 64.768349 38.979147 67.151609 42.929278 67.53125 48.695312 C 67.938476 54.879826 65.333424 59.477456 61.873047 62.646484 C 58.41267 65.815513 54.032387 67.461903 51.345703 67.568359 C 48.580407 67.677912 43.908363 66.709207 40.023438 64.072266 C 36.138511 61.435324 32.977776 57.23742 32.792969 50.601562 C 32.606305 43.915816 35.067666 39.358272 38.527344 36.416016 C 41.987022 33.47376 46.510245 32.187326 50.347656 32.330078 z M 52.248047 35.386719 C 51.687477 35.371169 51.111823 35.398447 50.521484 35.472656 C 45.678195 36.081924 41.672517 38.164164 39.048828 41.033203 C 36.425139 43.902242 35.18918 47.60472 35.998047 51.263672 C 36.716382 54.512004 38.547919 57.659875 40.966797 60.023438 C 43.385675 62.387 46.429785 63.996062 49.611328 63.898438 C 58.82716 63.616886 64.397794 57.631248 64.865234 51.171875 C 65.103177 47.883842 63.89525 43.800642 61.46875 40.546875 C 59.345562 37.699829 56.172039 35.495566 52.248047 35.386719 z M 52.207031 37.382812 C 55.455305 37.45937 58.005203 39.248014 59.865234 41.742188 C 61.990985 44.59267 63.061198 48.373377 62.869141 51.027344 C 62.476581 56.451971 57.942996 61.641988 49.548828 61.898438 C 47.092372 61.973818 44.503153 60.684687 42.363281 58.59375 C 40.223409 56.502813 38.571837 53.638699 37.951172 50.832031 C 37.295039 47.863983 38.262079 44.857774 40.525391 42.382812 C 42.788702 39.907851 46.353774 38.012763 50.771484 37.457031 C 51.264021 37.395116 51.742992 37.371876 52.207031 37.382812 z M 66.255859 38.589844 L 74.378906 38.589844 L 73.902344 69.476562 C 73.169719 72.047342 71.669059 73.061429 69.423828 73.560547 L 31.646484 72.564453 A 1.0001 1.0001 0 0 0 31.605469 72.564453 C 29.831522 72.591253 28.934144 71.795621 28.316406 70.728516 C 27.698668 69.661411 27.531785 68.249264 27.595703 67.679688 A 1.0001 1.0001 0 0 0 27.601562 67.560547 L 27.392578 39.628906 L 33.324219 39.628906 C 31.653923 42.574952 30.669821 46.245483 30.792969 50.65625 C 30.995162 57.916392 34.600567 62.808004 38.900391 65.726562 C 43.200214 68.645122 48.131124 69.696853 51.423828 69.566406 C 54.794144 69.432862 59.413236 67.611566 63.224609 64.121094 C 67.035982 60.630622 69.976117 55.377987 69.527344 48.5625 C 69.262309 44.537112 68.049068 41.228585 66.255859 38.589844 z"/></svg>