<svg xmlns="http://www.w3.org/2000/svg"  viewBox="0 0 100 100" width="50px" height="50px"><path d="M 75.019531 14.109375 L 23.808594 15.046875 A 2.0002 2.0002 0 0 0 23.699219 15.050781 C 23.699219 15.050781 21.708638 15.194498 19.628906 16.380859 C 17.549175 17.567221 15.244049 19.986253 14.621094 23.947266 C 14.302535 25.97059 14.179611 29.638634 14.101562 34.337891 C 14.023513 39.037147 14.019278 44.6455 14.048828 50.041016 C 14.107658 60.783241 14.297104 70.588413 14.298828 70.677734 C 14.235298 71.068453 13.834306 73.66382 14.359375 76.753906 C 14.642264 78.41875 15.197652 80.219604 16.373047 81.789062 C 17.31532 83.047244 18.709034 84.100722 20.457031 84.671875 A 1.0001 1.0001 0 0 0 20.777344 84.773438 A 1.0001 1.0001 0 0 0 20.779297 84.773438 C 21.113126 84.868466 21.454482 84.951973 21.8125 85.009766 C 26.132965 85.707194 38.818579 86.322752 51.425781 86.548828 C 57.729382 86.661866 63.942696 86.664597 68.921875 86.494141 C 71.411464 86.408911 73.589522 86.281182 75.345703 86.095703 C 77.101884 85.910224 78.317296 85.778345 79.488281 85.222656 C 85.627446 82.309327 85.970703 74.544922 85.970703 74.544922 A 2.0002 2.0002 0 0 0 85.976562 74.382812 L 85.871094 25.560547 C 86.03363 22.900737 85.257737 20.343537 83.484375 18.392578 C 81.676553 16.403708 79.006492 15.05367 75.550781 14.171875 A 2.0002 2.0002 0 0 0 75.019531 14.109375 z M 74.748047 18.115234 C 77.595333 18.871446 79.472845 19.928178 80.523438 21.083984 C 81.601365 22.269864 82.015833 23.559417 81.876953 25.416016 A 2.0002 2.0002 0 0 0 81.871094 25.568359 L 81.875 27.259766 A 1.0001 1.0001 0 0 0 81.556641 27.353516 L 70.353516 32.673828 A 1.0001 1.0001 0 1 0 71.210938 34.480469 L 81.878906 29.414062 L 81.886719 32.654297 L 74.919922 35.589844 A 1.0001 1.0001 0 1 0 75.695312 37.431641 L 81.890625 34.822266 L 81.976562 74.251953 C 81.97307 74.279441 81.677057 76.572648 80.574219 78.666016 L 77.785156 75.230469 A 1.0001 1.0001 0 0 0 77.001953 74.849609 A 1.0001 1.0001 0 0 0 76.232422 76.490234 L 79.390625 80.382812 C 78.931823 80.88338 78.39844 81.312781 77.773438 81.609375 C 77.741178 81.624685 76.526651 81.948111 74.925781 82.117188 C 74.709974 82.13998 74.415435 82.154535 74.181641 82.175781 L 72.476562 78.431641 A 1.0001 1.0001 0 0 0 71.517578 77.833984 A 1.0001 1.0001 0 0 0 70.65625 79.259766 L 72.060547 82.34375 C 71.055373 82.404316 69.96302 82.455772 68.785156 82.496094 C 68.710356 82.498654 68.622288 82.499472 68.546875 82.501953 L 66.082031 78.8125 A 1.0001 1.0001 0 0 0 65.238281 78.357422 A 1.0001 1.0001 0 0 0 64.417969 79.923828 L 66.179688 82.558594 C 64.249511 82.599486 62.195073 82.619915 60.029297 82.621094 A 1.0001 1.0001 0 0 0 60.080078 82.160156 L 57.685547 56.775391 L 65.558594 57.017578 A 1.0001 1.0001 0 0 0 66.587891 55.992188 L 66.291016 45.210938 A 1.0001 1.0001 0 0 0 65.886719 44.435547 C 65.886719 44.435547 65.735921 44.33546 65.630859 44.289062 C 65.525798 44.242663 65.397271 44.197662 65.236328 44.15625 C 64.914443 44.07342 64.458337 44.002554 63.763672 43.972656 C 62.599265 43.922546 60.189816 44.147277 57.242188 44.541016 C 57.353397 43.282383 57.646617 42.292077 58.132812 41.650391 C 58.758403 40.82473 59.616148 40.341393 60.548828 40.058594 C 62.414188 39.492995 64.423828 39.828125 64.423828 39.828125 A 1.0001 1.0001 0 0 0 65.599609 38.84375 L 65.607422 28.228516 A 1.0001 1.0001 0 0 0 64.902344 27.271484 C 64.902344 27.271484 63.711784 26.922306 61.705078 27.007812 C 59.698373 27.093322 56.778778 27.583626 53.027344 29.148438 C 48.925561 30.859386 47.313988 35.032914 46.708984 38.580078 C 46.261563 41.203329 46.333821 43.140484 46.404297 44.208984 L 36.777344 44.833984 A 1.0001 1.0001 0 0 0 35.851562 45.974609 L 37.324219 56.050781 A 1.0001 1.0001 0 0 0 38.396484 56.904297 L 47.113281 56.166016 L 48.347656 82.464844 C 46.928502 82.430603 45.519137 82.396013 44.121094 82.351562 L 44.474609 78.357422 A 1.0001 1.0001 0 0 0 43.453125 77.255859 A 1.0001 1.0001 0 0 0 42.482422 78.181641 L 42.117188 82.296875 C 41.174688 82.263605 40.367144 82.218503 39.453125 82.181641 L 40.269531 79.714844 A 1.0001 1.0001 0 0 0 39.328125 78.386719 A 1.0001 1.0001 0 0 0 38.371094 79.087891 L 37.376953 82.091797 C 36.416554 82.049225 35.392473 82.012275 34.486328 81.966797 L 35.236328 79.419922 A 1.0001 1.0001 0 0 0 34.253906 78.123047 A 1.0001 1.0001 0 0 0 33.318359 78.853516 L 32.431641 81.855469 C 31.339616 81.795008 30.432596 81.732631 29.46875 81.669922 L 31.230469 77.90625 A 1.0001 1.0001 0 0 0 30.353516 76.470703 A 1.0001 1.0001 0 0 0 29.417969 77.058594 L 27.324219 81.535156 C 26.275625 81.457509 25.290156 81.381155 24.505859 81.304688 L 25.625 80.068359 A 1.0001 1.0001 0 0 0 24.914062 78.386719 A 1.0001 1.0001 0 0 0 24.142578 78.726562 L 22.103516 80.976562 C 20.887931 80.706995 20.158342 80.167974 19.576172 79.390625 C 18.936754 78.536835 18.516095 77.339641 18.302734 76.083984 C 17.876013 73.572672 18.271484 71.064453 18.271484 71.064453 A 2.0002 2.0002 0 0 0 18.298828 70.693359 C 18.298828 70.693359 18.192391 64.101749 18.113281 56.341797 L 22.5625 54.544922 A 1.0001 1.0001 0 0 0 22.171875 52.611328 A 1.0001 1.0001 0 0 0 21.8125 52.689453 L 18.091797 54.193359 C 18.078658 52.6945 18.057382 51.581618 18.048828 50.019531 C 18.039512 48.318121 18.042245 46.613267 18.041016 44.90625 L 21.830078 47.539062 A 1.0001 1.0001 0 1 0 22.970703 45.896484 L 18.035156 42.46875 C 18.03788 41.146095 18.05472 39.954071 18.064453 38.689453 L 23.347656 43.236328 A 1.0005536 1.0005536 0 1 0 24.654297 41.720703 L 18.085938 36.068359 C 18.092753 35.533566 18.093036 34.917705 18.101562 34.404297 C 18.178763 29.755928 18.358824 25.924035 18.572266 24.568359 C 19.01231 21.770372 20.331809 20.585357 21.611328 19.855469 C 22.887706 19.127372 23.980938 19.043384 23.986328 19.042969 L 40.822266 18.734375 L 42.607422 26.916016 A 1.0001 1.0001 0 1 0 44.560547 26.490234 L 42.861328 18.697266 L 45.595703 18.648438 L 46.039062 23.330078 A 1.000496 1.000496 0 0 0 48.03125 23.142578 L 47.601562 18.611328 L 58.673828 18.408203 L 57.990234 22.458984 A 1.0003651 1.0003651 0 1 0 59.962891 22.792969 L 60.708984 18.371094 L 63.628906 18.318359 L 62.980469 21.173828 A 1.0001 1.0001 0 1 0 64.929688 21.617188 L 65.6875 18.28125 L 74.748047 18.115234 z M 30.84375 22.28125 C 30.728687 22.301313 30.615969 22.342906 30.511719 22.410156 C 30.094719 22.679156 29.975141 23.237297 30.244141 23.654297 C 30.513141 24.071297 31.069328 24.190875 31.486328 23.921875 C 31.903328 23.651875 32.024859 23.096688 31.755859 22.679688 C 31.554109 22.366937 31.188938 22.221062 30.84375 22.28125 z M 62.564453 28.992188 C 63.18004 29.004147 63.368185 29.081225 63.607422 29.132812 L 63.599609 37.753906 C 62.684372 37.692616 61.444289 37.697126 59.96875 38.144531 C 58.749055 38.514357 57.473568 39.208036 56.539062 40.441406 C 55.604559 41.674777 55.056546 43.408178 55.134766 45.673828 A 1.0001 1.0001 0 0 0 56.289062 46.626953 C 60.25763 46.010808 62.493815 45.919748 63.677734 45.970703 C 64.032075 45.985953 64.13066 46.016992 64.3125 46.044922 L 64.560547 54.986328 L 56.613281 54.742188 A 1.0001 1.0001 0 0 0 55.585938 55.835938 L 58.089844 82.349609 A 1.0001 1.0001 0 0 0 58.140625 82.605469 C 55.954821 82.596599 53.765449 82.589489 51.498047 82.548828 C 51.114794 82.541956 50.737675 82.525356 50.353516 82.517578 L 49.0625 55.033203 A 1.0001 1.0001 0 0 0 47.980469 54.083984 L 39.166016 54.832031 L 37.988281 46.757812 L 47.515625 46.140625 A 1.0001 1.0001 0 0 0 48.445312 45.033203 C 48.445312 45.033203 48.12919 42.145555 48.679688 38.917969 C 49.230184 35.690382 50.598658 32.328191 53.796875 30.994141 C 57.345441 29.513951 60.023268 29.081102 61.789062 29.005859 C 62.107169 28.992304 62.359257 28.988201 62.564453 28.992188 z M 33.935547 29.572266 C 33.820484 29.592328 33.707766 29.635875 33.603516 29.703125 C 33.186516 29.972125 33.066938 30.528312 33.335938 30.945312 C 33.604938 31.362313 34.161125 31.483844 34.578125 31.214844 C 34.995125 30.945844 35.114703 30.387703 34.845703 29.970703 C 34.643953 29.657953 34.280734 29.512078 33.935547 29.572266 z M 23.849609 29.660156 C 23.734547 29.680219 23.621828 29.723766 23.517578 29.791016 C 23.100578 30.060016 22.981 30.616203 23.25 31.033203 C 23.519 31.450203 24.075187 31.571734 24.492188 31.302734 C 24.909188 31.032734 25.030719 30.474594 24.761719 30.058594 C 24.559969 29.745844 24.194797 29.599969 23.849609 29.660156 z"/></svg>